<svg width="35" height="33" viewBox="0 0 35 33" fill="none" xmlns="http://www.w3.org/2000/svg">
<g id="Link &#226;&#134;&#146; SVG - Message" clip-path="url(#clip0_1_711)">
<path id="Vector" d="M17.3369 0C8.22364 0 0.836914 7.38636 0.836914 16.4992C0.836914 25.612 8.22364 32.9984 17.3369 32.9984C26.4502 32.9984 33.8369 25.612 33.8369 16.4992C33.8369 7.38636 26.4502 0 17.3369 0ZM27.4438 20.6606C27.4438 22.4669 25.9795 23.9311 24.1731 23.9311H20.3144L17.3369 26.9085L14.3594 23.9311H10.5007C8.69437 23.9311 7.23005 22.4669 7.23005 20.6606V11.6374C7.23005 9.8311 8.69437 8.36686 10.5007 8.36686H24.1731C25.9795 8.36686 27.4438 9.8311 27.4438 11.6374V20.6606Z" fill="white"/>
<path id="Vector_2" d="M8.91748 15.3022C10.6701 18.1086 13.786 19.9751 17.3369 19.9751C20.8877 19.9751 24.0037 18.1086 25.7563 15.3022C23.5166 17.2909 20.5701 18.5011 17.3369 18.5011C14.1037 18.5011 11.1587 17.2909 8.91748 15.3022Z" fill="white"/>
</g>
<defs>
<clipPath id="clip0_1_711">
<rect width="34" height="33" fill="white" transform="translate(0.5)"/>
</clipPath>
</defs>
</svg>
