<svg width="36" height="35" viewBox="0 0 36 35" fill="none" xmlns="http://www.w3.org/2000/svg">
<g id="Link &#226;&#134;&#146; SVG - Instagram" clip-path="url(#clip0_1_693)">
<path id="Vector" d="M25.7347 11.6471C25.5996 11.2417 25.3294 10.8364 24.9916 10.4986C24.6538 10.1608 24.316 9.95812 23.8431 9.75544C23.5053 9.62033 22.9648 9.48521 22.019 9.41766C21.0056 9.3501 20.6679 9.3501 18.1007 9.3501C15.5335 9.3501 15.1957 9.3501 14.1823 9.41766C13.2365 9.48521 12.696 9.62033 12.3582 9.75544C11.9529 9.89056 11.5475 10.1608 11.2098 10.4986C10.872 10.8364 10.6693 11.1742 10.4666 11.6471C10.3315 11.9849 10.1964 12.5253 10.1288 13.4711C10.0613 14.4845 10.0613 14.8223 10.0613 17.3895C10.0613 19.9567 10.0613 20.2945 10.1288 21.3078C10.1964 22.2536 10.3315 22.7941 10.4666 23.1319C10.6017 23.5372 10.872 23.9426 11.2098 24.2804C11.5475 24.6182 11.8853 24.8208 12.3582 25.0235C12.696 25.1586 13.2365 25.2938 14.1823 25.3613C15.1957 25.4289 15.5335 25.4289 18.1007 25.4289C20.6679 25.4289 21.0056 25.4289 22.019 25.3613C22.9648 25.2938 23.5053 25.1586 23.8431 25.0235C24.7213 24.6857 25.3294 24.0102 25.6671 23.1995C25.8023 22.8617 25.9374 22.3212 26.0049 21.3754C26.0725 20.362 26.0725 20.0242 26.0725 17.457C26.0725 14.8898 26.0725 14.5521 26.0049 13.5387C26.0725 12.5253 25.8698 11.9849 25.7347 11.6471ZM18.1682 22.3888C15.3983 22.3888 13.1689 20.1594 13.1689 17.3895C13.1689 14.6196 15.3983 12.3902 18.1682 12.3902C20.9381 12.3902 23.1675 14.6196 23.1675 17.3895C23.1675 20.1594 20.9381 22.3888 18.1682 22.3888ZM23.3702 13.336C22.6946 13.336 22.2217 12.7955 22.2217 12.1875C22.2217 11.5119 22.7622 11.039 23.3702 11.039C24.0458 11.039 24.5187 11.5795 24.5187 12.1875C24.5187 12.8631 23.9782 13.336 23.3702 13.336Z" fill="white"/>
<path id="Vector_2" d="M18.1683 20.632C19.9593 20.632 21.4111 19.1802 21.4111 17.3893C21.4111 15.5983 19.9593 14.1465 18.1683 14.1465C16.3774 14.1465 14.9255 15.5983 14.9255 17.3893C14.9255 19.1802 16.3774 20.632 18.1683 20.632Z" fill="white"/>
<path id="Vector_3" d="M18.1683 0.5C8.84529 0.5 1.27881 8.06648 1.27881 17.3895C1.27881 26.7124 8.84529 34.2789 18.1683 34.2789C27.4913 34.2789 35.0577 26.7124 35.0577 17.3895C35.0577 8.06648 27.4913 0.5 18.1683 0.5ZM27.829 21.3754C27.7615 22.3887 27.6264 23.1319 27.3561 23.7399C26.8832 25.0235 25.8023 26.1044 24.5187 26.5773C23.9107 26.8476 23.1675 26.9827 22.1542 27.0502C21.1408 27.1178 20.803 27.1178 18.1683 27.1178C15.5335 27.1178 15.1957 27.1178 14.1824 27.0502C13.169 26.9827 12.4259 26.8476 11.8178 26.5773C11.1423 26.3071 10.6018 25.9693 10.1289 25.4288C9.65599 24.9559 9.25063 24.3479 8.9804 23.6723C8.71017 23.0643 8.57505 22.3212 8.5075 21.3078C8.43994 20.2944 8.43994 19.9567 8.43994 17.3219C8.43994 14.6871 8.43994 14.3494 8.5075 13.336C8.57505 12.3226 8.71017 11.5795 8.9804 10.9715C9.25063 10.2959 9.58843 9.75543 10.1289 9.28252C10.6018 8.80962 11.2098 8.40427 11.8854 8.13404C12.4934 7.86381 13.2365 7.72869 14.2499 7.66113C15.2633 7.59357 15.6011 7.59357 18.2358 7.59357C20.8706 7.59357 21.2084 7.59357 22.2217 7.66113C23.2351 7.72869 23.9782 7.86381 24.5863 8.13404C25.2618 8.40427 25.8023 8.74206 26.2752 9.28252C26.7481 9.75543 27.1535 10.3634 27.4237 11.039C27.6939 11.647 27.829 12.3902 27.8966 13.4035C27.9642 14.4169 27.9642 14.7547 27.9642 17.3895C27.9642 20.0242 27.8966 20.362 27.829 21.3754Z" fill="white"/>
</g>
<defs>
<clipPath id="clip0_1_693">
<rect width="35" height="34" fill="white" transform="translate(0.5 0.5)"/>
</clipPath>
</defs>
</svg>
